M48
METRIC,TZ
T1C0.330
T2C1.016
T3C1.100
%
G90
G05
T1
X59.3Y-42.3
X59.7Y-45.8
X59.7Y-50.4
X59.7Y-54.9
X69.7Y-44.85
X69.7Y-49.35
X69.726Y-54.4
X74.6Y-47.4
X76.25Y-43.
X78.25Y-56.05
T2
X48.73Y-46.71
X48.73Y-49.25
X48.73Y-51.79
X51.27Y-46.71
X51.27Y-49.25
X51.27Y-51.79
X54.98Y-44.17
X54.98Y-46.71
X54.98Y-49.25
X54.98Y-51.79
X54.98Y-54.33
X57.52Y-44.17
X57.52Y-46.71
X57.52Y-49.25
X57.52Y-51.79
X57.52Y-54.33
X79.48Y-44.17
X79.48Y-46.71
X79.48Y-49.25
X79.48Y-51.79
X79.48Y-54.33
X82.02Y-44.17
X82.02Y-46.71
X82.02Y-49.25
X82.02Y-51.79
X82.02Y-54.33
X85.23Y-46.71
X85.23Y-49.25
X85.23Y-51.79
X87.77Y-46.71
X87.77Y-49.25
X87.77Y-51.79
T3
X73.75Y-44.17
X73.75Y-49.25
X73.75Y-54.33
T0
M30
