G04 #@! TF.FileFunction,Soldermask,Bot*
%FSLAX46Y46*%
G04 Gerber Fmt 4.6, Leading zero omitted, Abs format (unit mm)*
G04 Created by KiCad (PCBNEW (2015-05-09 BZR 5648)-product) date Sun 10 May 2015 11:27:42 AM CEST*
%MOMM*%
G01*
G04 APERTURE LIST*
%ADD10C,0.150000*%
%ADD11R,1.000000X1.250000*%
%ADD12R,1.651000X1.651000*%
%ADD13C,1.651000*%
%ADD14O,2.200000X1.800000*%
%ADD15R,3.657600X2.032000*%
%ADD16R,1.016000X2.032000*%
%ADD17R,1.200000X0.900000*%
G04 APERTURE END LIST*
D10*
D11*
X65500000Y-53250000D03*
X67500000Y-53250000D03*
X61750000Y-53250000D03*
X63750000Y-53250000D03*
D12*
X87770000Y-51790000D03*
D13*
X85230000Y-51790000D03*
X87770000Y-49250000D03*
X85230000Y-49250000D03*
X87770000Y-46710000D03*
X85230000Y-46710000D03*
X54980000Y-44170000D03*
X57520000Y-44170000D03*
D12*
X57520000Y-54330000D03*
D13*
X54980000Y-54330000D03*
X57520000Y-51790000D03*
X54980000Y-51790000D03*
X57520000Y-49250000D03*
X54980000Y-49250000D03*
X57520000Y-46710000D03*
X54980000Y-46710000D03*
X79480000Y-44170000D03*
X82020000Y-44170000D03*
D12*
X82020000Y-54330000D03*
D13*
X79480000Y-54330000D03*
X82020000Y-51790000D03*
X79480000Y-51790000D03*
X82020000Y-49250000D03*
X79480000Y-49250000D03*
X82020000Y-46710000D03*
X79480000Y-46710000D03*
D14*
X73750000Y-54330000D03*
X73750000Y-49250000D03*
X73750000Y-44170000D03*
D12*
X51270000Y-51790000D03*
D13*
X48730000Y-51790000D03*
X51270000Y-49250000D03*
X48730000Y-49250000D03*
X51270000Y-46710000D03*
X48730000Y-46710000D03*
D15*
X64750000Y-44198000D03*
D16*
X64750000Y-50802000D03*
X62464000Y-50802000D03*
X67036000Y-50802000D03*
D17*
X65400000Y-55200000D03*
X67600000Y-55200000D03*
M02*
