G04 #@! TF.FileFunction,Legend,Top*
%FSLAX46Y46*%
G04 Gerber Fmt 4.6, Leading zero omitted, Abs format (unit mm)*
G04 Created by KiCad (PCBNEW (2015-04-17 BZR 5608)-product) date Sun 19 Apr 2015 04:52:48 PM CEST*
%MOMM*%
G01*
G04 APERTURE LIST*
%ADD10C,0.150000*%
%ADD11C,0.300000*%
%ADD12C,0.200000*%
%ADD13R,0.800100X0.800100*%
%ADD14R,1.651000X1.651000*%
%ADD15C,1.651000*%
%ADD16O,2.200000X1.800000*%
%ADD17R,0.900000X0.500000*%
G04 APERTURE END LIST*
D10*
D11*
X78514286Y-58582143D02*
X78216667Y-58582143D01*
X78216667Y-56796429D01*
X78514286Y-56796429D01*
X78871428Y-56915476D02*
X79645238Y-56915476D01*
X79228571Y-57391667D01*
X79407143Y-57391667D01*
X79526190Y-57451190D01*
X79585714Y-57510714D01*
X79645238Y-57629762D01*
X79645238Y-57927381D01*
X79585714Y-58046429D01*
X79526190Y-58105952D01*
X79407143Y-58165476D01*
X79050000Y-58165476D01*
X78930952Y-58105952D01*
X78871428Y-58046429D01*
X80180952Y-58046429D02*
X80240476Y-58105952D01*
X80180952Y-58165476D01*
X80121428Y-58105952D01*
X80180952Y-58046429D01*
X80180952Y-58165476D01*
X80657142Y-56915476D02*
X81430952Y-56915476D01*
X81014285Y-57391667D01*
X81192857Y-57391667D01*
X81311904Y-57451190D01*
X81371428Y-57510714D01*
X81430952Y-57629762D01*
X81430952Y-57927381D01*
X81371428Y-58046429D01*
X81311904Y-58105952D01*
X81192857Y-58165476D01*
X80835714Y-58165476D01*
X80716666Y-58105952D01*
X80657142Y-58046429D01*
X81966666Y-57689286D02*
X82919047Y-57689286D01*
X83752380Y-56915476D02*
X83990476Y-56915476D01*
X84109523Y-56975000D01*
X84228571Y-57094048D01*
X84288095Y-57332143D01*
X84288095Y-57748810D01*
X84228571Y-57986905D01*
X84109523Y-58105952D01*
X83990476Y-58165476D01*
X83752380Y-58165476D01*
X83633333Y-58105952D01*
X83514285Y-57986905D01*
X83454761Y-57748810D01*
X83454761Y-57332143D01*
X83514285Y-57094048D01*
X83633333Y-56975000D01*
X83752380Y-56915476D01*
X85240476Y-57510714D02*
X84823809Y-57510714D01*
X84823809Y-58165476D02*
X84823809Y-56915476D01*
X85419047Y-56915476D01*
X86311905Y-57510714D02*
X85895238Y-57510714D01*
X85895238Y-58165476D02*
X85895238Y-56915476D01*
X86490476Y-56915476D01*
X86966667Y-57689286D02*
X87919048Y-57689286D01*
X89109524Y-56915476D02*
X88514286Y-56915476D01*
X88454762Y-57510714D01*
X88514286Y-57451190D01*
X88633334Y-57391667D01*
X88930953Y-57391667D01*
X89050000Y-57451190D01*
X89109524Y-57510714D01*
X89169048Y-57629762D01*
X89169048Y-57927381D01*
X89109524Y-58046429D01*
X89050000Y-58105952D01*
X88930953Y-58165476D01*
X88633334Y-58165476D01*
X88514286Y-58105952D01*
X88454762Y-58046429D01*
X89585714Y-58582143D02*
X89883333Y-58582143D01*
X89883333Y-56796429D01*
X89585714Y-56796429D01*
X47500000Y-58000000D02*
X48214286Y-58000000D01*
X47357143Y-58428571D02*
X47857143Y-56928571D01*
X48357143Y-58428571D01*
X48642857Y-56928571D02*
X49142857Y-58428571D01*
X49642857Y-56928571D01*
X51000000Y-58428571D02*
X50500000Y-57714286D01*
X50142857Y-58428571D02*
X50142857Y-56928571D01*
X50714285Y-56928571D01*
X50857143Y-57000000D01*
X50928571Y-57071429D01*
X51000000Y-57214286D01*
X51000000Y-57428571D01*
X50928571Y-57571429D01*
X50857143Y-57642857D01*
X50714285Y-57714286D01*
X50142857Y-57714286D01*
X51642857Y-57857143D02*
X52785714Y-57857143D01*
X53500000Y-58428571D02*
X53500000Y-56928571D01*
X54142857Y-58357143D02*
X54357143Y-58428571D01*
X54714286Y-58428571D01*
X54857143Y-58357143D01*
X54928572Y-58285714D01*
X55000000Y-58142857D01*
X55000000Y-58000000D01*
X54928572Y-57857143D01*
X54857143Y-57785714D01*
X54714286Y-57714286D01*
X54428572Y-57642857D01*
X54285714Y-57571429D01*
X54214286Y-57500000D01*
X54142857Y-57357143D01*
X54142857Y-57214286D01*
X54214286Y-57071429D01*
X54285714Y-57000000D01*
X54428572Y-56928571D01*
X54785714Y-56928571D01*
X55000000Y-57000000D01*
X55642857Y-58428571D02*
X55642857Y-56928571D01*
X56214285Y-56928571D01*
X56357143Y-57000000D01*
X56428571Y-57071429D01*
X56500000Y-57214286D01*
X56500000Y-57428571D01*
X56428571Y-57571429D01*
X56357143Y-57642857D01*
X56214285Y-57714286D01*
X55642857Y-57714286D01*
D10*
X64650000Y-39250000D02*
X64650000Y-59250000D01*
D11*
X71535715Y-56928571D02*
X72464286Y-56928571D01*
X71964286Y-57500000D01*
X72178572Y-57500000D01*
X72321429Y-57571429D01*
X72392858Y-57642857D01*
X72464286Y-57785714D01*
X72464286Y-58142857D01*
X72392858Y-58285714D01*
X72321429Y-58357143D01*
X72178572Y-58428571D01*
X71750000Y-58428571D01*
X71607143Y-58357143D01*
X71535715Y-58285714D01*
X73107143Y-58285714D02*
X73178571Y-58357143D01*
X73107143Y-58428571D01*
X73035714Y-58357143D01*
X73107143Y-58285714D01*
X73107143Y-58428571D01*
X73678572Y-56928571D02*
X74607143Y-56928571D01*
X74107143Y-57500000D01*
X74321429Y-57500000D01*
X74464286Y-57571429D01*
X74535715Y-57642857D01*
X74607143Y-57785714D01*
X74607143Y-58142857D01*
X74535715Y-58285714D01*
X74464286Y-58357143D01*
X74321429Y-58428571D01*
X73892857Y-58428571D01*
X73750000Y-58357143D01*
X73678572Y-58285714D01*
X75035714Y-56928571D02*
X75535714Y-58428571D01*
X76035714Y-56928571D01*
X73464287Y-39928571D02*
X72750001Y-39928571D01*
X72678572Y-40642857D01*
X72750001Y-40571429D01*
X72892858Y-40500000D01*
X73250001Y-40500000D01*
X73392858Y-40571429D01*
X73464287Y-40642857D01*
X73535715Y-40785714D01*
X73535715Y-41142857D01*
X73464287Y-41285714D01*
X73392858Y-41357143D01*
X73250001Y-41428571D01*
X72892858Y-41428571D01*
X72750001Y-41357143D01*
X72678572Y-41285714D01*
X73964286Y-39928571D02*
X74464286Y-41428571D01*
X74964286Y-39928571D01*
X81642857Y-40428571D02*
X81928571Y-40428571D01*
X82071429Y-40500000D01*
X82214286Y-40642857D01*
X82285714Y-40928571D01*
X82285714Y-41428571D01*
X82214286Y-41714286D01*
X82071429Y-41857143D01*
X81928571Y-41928571D01*
X81642857Y-41928571D01*
X81500000Y-41857143D01*
X81357143Y-41714286D01*
X81285714Y-41428571D01*
X81285714Y-40928571D01*
X81357143Y-40642857D01*
X81500000Y-40500000D01*
X81642857Y-40428571D01*
X82928572Y-40428571D02*
X82928572Y-41642857D01*
X83000000Y-41785714D01*
X83071429Y-41857143D01*
X83214286Y-41928571D01*
X83500000Y-41928571D01*
X83642858Y-41857143D01*
X83714286Y-41785714D01*
X83785715Y-41642857D01*
X83785715Y-40428571D01*
X84285715Y-40428571D02*
X85142858Y-40428571D01*
X84714287Y-41928571D02*
X84714287Y-40428571D01*
X85642858Y-41928571D02*
X85642858Y-40428571D01*
X86214286Y-40428571D01*
X86357144Y-40500000D01*
X86428572Y-40571429D01*
X86500001Y-40714286D01*
X86500001Y-40928571D01*
X86428572Y-41071429D01*
X86357144Y-41142857D01*
X86214286Y-41214286D01*
X85642858Y-41214286D01*
X87142858Y-40428571D02*
X87142858Y-41642857D01*
X87214286Y-41785714D01*
X87285715Y-41857143D01*
X87428572Y-41928571D01*
X87714286Y-41928571D01*
X87857144Y-41857143D01*
X87928572Y-41785714D01*
X88000001Y-41642857D01*
X88000001Y-40428571D01*
X88500001Y-40428571D02*
X89357144Y-40428571D01*
X88928573Y-41928571D02*
X88928573Y-40428571D01*
X47607143Y-41928571D02*
X47607143Y-40428571D01*
X48321429Y-41928571D02*
X48321429Y-40428571D01*
X49178572Y-41928571D01*
X49178572Y-40428571D01*
X49892858Y-41928571D02*
X49892858Y-40428571D01*
X50464286Y-40428571D01*
X50607144Y-40500000D01*
X50678572Y-40571429D01*
X50750001Y-40714286D01*
X50750001Y-40928571D01*
X50678572Y-41071429D01*
X50607144Y-41142857D01*
X50464286Y-41214286D01*
X49892858Y-41214286D01*
X51392858Y-40428571D02*
X51392858Y-41642857D01*
X51464286Y-41785714D01*
X51535715Y-41857143D01*
X51678572Y-41928571D01*
X51964286Y-41928571D01*
X52107144Y-41857143D01*
X52178572Y-41785714D01*
X52250001Y-41642857D01*
X52250001Y-40428571D01*
X52750001Y-40428571D02*
X53607144Y-40428571D01*
X53178573Y-41928571D02*
X53178573Y-40428571D01*
D10*
X65597980Y-41200840D02*
X65597980Y-41249100D01*
X66299020Y-43999820D02*
X65597980Y-43999820D01*
X65597980Y-43999820D02*
X65597980Y-43750900D01*
X65597980Y-41200840D02*
X65597980Y-41000180D01*
X65597980Y-41000180D02*
X66299020Y-41000180D01*
D12*
X89548000Y-53568000D02*
X87643000Y-53568000D01*
X89548000Y-51663000D02*
X89548000Y-53568000D01*
X89040000Y-45440000D02*
X89040000Y-53060000D01*
X89040000Y-53060000D02*
X83960000Y-53060000D01*
X83960000Y-53060000D02*
X83960000Y-45440000D01*
X83960000Y-45440000D02*
X89040000Y-45440000D01*
D10*
X65597980Y-50200840D02*
X65597980Y-50249100D01*
X66299020Y-52999820D02*
X65597980Y-52999820D01*
X65597980Y-52999820D02*
X65597980Y-52750900D01*
X65597980Y-50200840D02*
X65597980Y-50000180D01*
X65597980Y-50000180D02*
X66299020Y-50000180D01*
X65597980Y-54700840D02*
X65597980Y-54749100D01*
X66299020Y-57499820D02*
X65597980Y-57499820D01*
X65597980Y-57499820D02*
X65597980Y-57250900D01*
X65597980Y-54700840D02*
X65597980Y-54500180D01*
X65597980Y-54500180D02*
X66299020Y-54500180D01*
X63650240Y-52799160D02*
X63650240Y-52750900D01*
X62949200Y-50000180D02*
X63650240Y-50000180D01*
X63650240Y-50000180D02*
X63650240Y-50249100D01*
X63650240Y-52799160D02*
X63650240Y-52999820D01*
X63650240Y-52999820D02*
X62949200Y-52999820D01*
X63650240Y-57299160D02*
X63650240Y-57250900D01*
X62949200Y-54500180D02*
X63650240Y-54500180D01*
X63650240Y-54500180D02*
X63650240Y-54749100D01*
X63650240Y-57299160D02*
X63650240Y-57499820D01*
X63650240Y-57499820D02*
X62949200Y-57499820D01*
X65597980Y-45700840D02*
X65597980Y-45749100D01*
X66299020Y-48499820D02*
X65597980Y-48499820D01*
X65597980Y-48499820D02*
X65597980Y-48250900D01*
X65597980Y-45700840D02*
X65597980Y-45500180D01*
X65597980Y-45500180D02*
X66299020Y-45500180D01*
X63650240Y-48299160D02*
X63650240Y-48250900D01*
X62949200Y-45500180D02*
X63650240Y-45500180D01*
X63650240Y-45500180D02*
X63650240Y-45749100D01*
X63650240Y-48299160D02*
X63650240Y-48499820D01*
X63650240Y-48499820D02*
X62949200Y-48499820D01*
D12*
X59298000Y-56108000D02*
X57520000Y-56108000D01*
X59298000Y-54330000D02*
X59298000Y-56108000D01*
X58790000Y-55600000D02*
X53710000Y-55600000D01*
X58790000Y-42900000D02*
X58790000Y-55600000D01*
X53710000Y-55600000D02*
X53710000Y-42900000D01*
X53710000Y-42900000D02*
X58790000Y-42900000D01*
X83798000Y-56108000D02*
X82020000Y-56108000D01*
X83798000Y-54330000D02*
X83798000Y-56108000D01*
X83290000Y-55600000D02*
X78210000Y-55600000D01*
X83290000Y-42900000D02*
X83290000Y-55600000D01*
X78210000Y-55600000D02*
X78210000Y-42900000D01*
X78210000Y-42900000D02*
X83290000Y-42900000D01*
D10*
X63650240Y-43799160D02*
X63650240Y-43750900D01*
X62949200Y-41000180D02*
X63650240Y-41000180D01*
X63650240Y-41000180D02*
X63650240Y-41249100D01*
X63650240Y-43799160D02*
X63650240Y-43999820D01*
X63650240Y-43999820D02*
X62949200Y-43999820D01*
D12*
X77500000Y-56300000D02*
X70000000Y-56300000D01*
X77500000Y-42200000D02*
X77500000Y-56300000D01*
X70000000Y-42200000D02*
X77500000Y-42200000D01*
X70000000Y-56300000D02*
X70000000Y-42200000D01*
X53048000Y-53568000D02*
X51143000Y-53568000D01*
X53048000Y-51663000D02*
X53048000Y-53568000D01*
X52540000Y-45440000D02*
X52540000Y-53060000D01*
X52540000Y-53060000D02*
X47460000Y-53060000D01*
X47460000Y-53060000D02*
X47460000Y-45440000D01*
X47460000Y-45440000D02*
X52540000Y-45440000D01*
D10*
X69425000Y-51000000D02*
X69425000Y-52000000D01*
X68075000Y-52000000D02*
X68075000Y-51000000D01*
X69425000Y-55500000D02*
X69425000Y-56500000D01*
X68075000Y-56500000D02*
X68075000Y-55500000D01*
X59825000Y-56500000D02*
X59825000Y-55500000D01*
X61175000Y-55500000D02*
X61175000Y-56500000D01*
X59825000Y-52000000D02*
X59825000Y-51000000D01*
X61175000Y-51000000D02*
X61175000Y-52000000D01*
X59825000Y-47500000D02*
X59825000Y-46500000D01*
X61175000Y-46500000D02*
X61175000Y-47500000D01*
X69425000Y-46500000D02*
X69425000Y-47500000D01*
X68075000Y-47500000D02*
X68075000Y-46500000D01*
X59825000Y-43000000D02*
X59825000Y-42000000D01*
X61175000Y-42000000D02*
X61175000Y-43000000D01*
X69425000Y-42000000D02*
X69425000Y-43000000D01*
X68075000Y-43000000D02*
X68075000Y-42000000D01*
D12*
X71614762Y-50583333D02*
X71662381Y-50440476D01*
X71662381Y-50202380D01*
X71614762Y-50107142D01*
X71567143Y-50059523D01*
X71471905Y-50011904D01*
X71376667Y-50011904D01*
X71281429Y-50059523D01*
X71233810Y-50107142D01*
X71186190Y-50202380D01*
X71138571Y-50392857D01*
X71090952Y-50488095D01*
X71043333Y-50535714D01*
X70948095Y-50583333D01*
X70852857Y-50583333D01*
X70757619Y-50535714D01*
X70710000Y-50488095D01*
X70662381Y-50392857D01*
X70662381Y-50154761D01*
X70710000Y-50011904D01*
X70662381Y-49678571D02*
X71662381Y-49440476D01*
X70948095Y-49249999D01*
X71662381Y-49059523D01*
X70662381Y-48821428D01*
X71662381Y-47916666D02*
X71662381Y-48488095D01*
X71662381Y-48202381D02*
X70662381Y-48202381D01*
X70805238Y-48297619D01*
X70900476Y-48392857D01*
X70948095Y-48488095D01*
X76456667Y-54821429D02*
X76456667Y-54345238D01*
X76742381Y-54916667D02*
X75742381Y-54583334D01*
X76742381Y-54250000D01*
X76742381Y-53916667D02*
X75742381Y-53916667D01*
X75742381Y-53535714D01*
X75790000Y-53440476D01*
X75837619Y-53392857D01*
X75932857Y-53345238D01*
X76075714Y-53345238D01*
X76170952Y-53392857D01*
X76218571Y-53440476D01*
X76266190Y-53535714D01*
X76266190Y-53916667D01*
X76218571Y-52916667D02*
X76218571Y-52583333D01*
X76742381Y-52440476D02*
X76742381Y-52916667D01*
X75742381Y-52916667D01*
X75742381Y-52440476D01*
X76742381Y-52011905D02*
X75742381Y-52011905D01*
X76456667Y-51678571D01*
X75742381Y-51345238D01*
X76742381Y-51345238D01*
X75837619Y-50154762D02*
X75790000Y-50107143D01*
X75742381Y-50011905D01*
X75742381Y-49773809D01*
X75790000Y-49678571D01*
X75837619Y-49630952D01*
X75932857Y-49583333D01*
X76028095Y-49583333D01*
X76170952Y-49630952D01*
X76742381Y-50202381D01*
X76742381Y-49583333D01*
X75742381Y-48678571D02*
X75742381Y-49154762D01*
X76218571Y-49202381D01*
X76170952Y-49154762D01*
X76123333Y-49059524D01*
X76123333Y-48821428D01*
X76170952Y-48726190D01*
X76218571Y-48678571D01*
X76313810Y-48630952D01*
X76551905Y-48630952D01*
X76647143Y-48678571D01*
X76694762Y-48726190D01*
X76742381Y-48821428D01*
X76742381Y-49059524D01*
X76694762Y-49154762D01*
X76647143Y-49202381D01*
X76075714Y-47773809D02*
X76742381Y-47773809D01*
X75694762Y-48011905D02*
X76409048Y-48250000D01*
X76409048Y-47630952D01*
X75742381Y-47345238D02*
X75742381Y-46726190D01*
X76123333Y-47059524D01*
X76123333Y-46916666D01*
X76170952Y-46821428D01*
X76218571Y-46773809D01*
X76313810Y-46726190D01*
X76551905Y-46726190D01*
X76647143Y-46773809D01*
X76694762Y-46821428D01*
X76742381Y-46916666D01*
X76742381Y-47202381D01*
X76694762Y-47297619D01*
X76647143Y-47345238D01*
X76742381Y-46250000D02*
X76742381Y-46059524D01*
X76694762Y-45964285D01*
X76647143Y-45916666D01*
X76504286Y-45821428D01*
X76313810Y-45773809D01*
X75932857Y-45773809D01*
X75837619Y-45821428D01*
X75790000Y-45869047D01*
X75742381Y-45964285D01*
X75742381Y-46154762D01*
X75790000Y-46250000D01*
X75837619Y-46297619D01*
X75932857Y-46345238D01*
X76170952Y-46345238D01*
X76266190Y-46297619D01*
X76313810Y-46250000D01*
X76361429Y-46154762D01*
X76361429Y-45964285D01*
X76313810Y-45869047D01*
X76266190Y-45821428D01*
X76170952Y-45773809D01*
X76742381Y-45345238D02*
X75742381Y-45345238D01*
X76742381Y-44773809D01*
X75742381Y-44773809D01*
X76742381Y-44297619D02*
X75742381Y-44297619D01*
X76218571Y-44297619D02*
X76218571Y-43726190D01*
X76742381Y-43726190D02*
X75742381Y-43726190D01*
%LPC*%
D13*
X67248980Y-43450000D03*
X67248980Y-41550000D03*
X65250000Y-42500000D03*
D14*
X87770000Y-51790000D03*
D15*
X85230000Y-51790000D03*
X87770000Y-49250000D03*
X85230000Y-49250000D03*
X87770000Y-46710000D03*
X85230000Y-46710000D03*
D13*
X67248980Y-52450000D03*
X67248980Y-50550000D03*
X65250000Y-51500000D03*
X67248980Y-56950000D03*
X67248980Y-55050000D03*
X65250000Y-56000000D03*
X61999240Y-50550000D03*
X61999240Y-52450000D03*
X63998220Y-51500000D03*
X61999240Y-55050000D03*
X61999240Y-56950000D03*
X63998220Y-56000000D03*
X67248980Y-47950000D03*
X67248980Y-46050000D03*
X65250000Y-47000000D03*
X61999240Y-46050000D03*
X61999240Y-47950000D03*
X63998220Y-47000000D03*
D15*
X54980000Y-44170000D03*
X57520000Y-44170000D03*
D14*
X57520000Y-54330000D03*
D15*
X54980000Y-54330000D03*
X57520000Y-51790000D03*
X54980000Y-51790000D03*
X57520000Y-49250000D03*
X54980000Y-49250000D03*
X57520000Y-46710000D03*
X54980000Y-46710000D03*
X79480000Y-44170000D03*
X82020000Y-44170000D03*
D14*
X82020000Y-54330000D03*
D15*
X79480000Y-54330000D03*
X82020000Y-51790000D03*
X79480000Y-51790000D03*
X82020000Y-49250000D03*
X79480000Y-49250000D03*
X82020000Y-46710000D03*
X79480000Y-46710000D03*
D13*
X61999240Y-41550000D03*
X61999240Y-43450000D03*
X63998220Y-42500000D03*
D16*
X73750000Y-54330000D03*
X73750000Y-49250000D03*
X73750000Y-44170000D03*
D14*
X51270000Y-51790000D03*
D15*
X48730000Y-51790000D03*
X51270000Y-49250000D03*
X48730000Y-49250000D03*
X51270000Y-46710000D03*
X48730000Y-46710000D03*
D17*
X68750000Y-52250000D03*
X68750000Y-50750000D03*
X68750000Y-56750000D03*
X68750000Y-55250000D03*
X60500000Y-55250000D03*
X60500000Y-56750000D03*
X60500000Y-50750000D03*
X60500000Y-52250000D03*
X60500000Y-46250000D03*
X60500000Y-47750000D03*
X68750000Y-47750000D03*
X68750000Y-46250000D03*
X60500000Y-41750000D03*
X60500000Y-43250000D03*
X68750000Y-43250000D03*
X68750000Y-41750000D03*
M02*
