G04 #@! TF.FileFunction,Copper,L1,Top,Signal*
%FSLAX46Y46*%
G04 Gerber Fmt 4.6, Leading zero omitted, Abs format (unit mm)*
G04 Created by KiCad (PCBNEW (2015-04-17 BZR 5608)-product) date Sun 19 Apr 2015 05:44:23 PM CEST*
%MOMM*%
G01*
G04 APERTURE LIST*
%ADD10C,0.150000*%
%ADD11R,0.800100X0.800100*%
%ADD12R,1.651000X1.651000*%
%ADD13C,1.651000*%
%ADD14O,2.200000X1.800000*%
%ADD15R,0.900000X0.500000*%
%ADD16C,0.635000*%
%ADD17C,0.406400*%
%ADD18C,0.203200*%
G04 APERTURE END LIST*
D10*
D11*
X67248980Y-43450000D03*
X67248980Y-41550000D03*
X65250000Y-42500000D03*
D12*
X87770000Y-51790000D03*
D13*
X85230000Y-51790000D03*
X87770000Y-49250000D03*
X85230000Y-49250000D03*
X87770000Y-46710000D03*
X85230000Y-46710000D03*
D11*
X67248980Y-52450000D03*
X67248980Y-50550000D03*
X65250000Y-51500000D03*
X67248980Y-56950000D03*
X67248980Y-55050000D03*
X65250000Y-56000000D03*
X61999240Y-50550000D03*
X61999240Y-52450000D03*
X63998220Y-51500000D03*
X61999240Y-55050000D03*
X61999240Y-56950000D03*
X63998220Y-56000000D03*
X67248980Y-47950000D03*
X67248980Y-46050000D03*
X65250000Y-47000000D03*
X61999240Y-46050000D03*
X61999240Y-47950000D03*
X63998220Y-47000000D03*
D13*
X54980000Y-44170000D03*
X57520000Y-44170000D03*
D12*
X57520000Y-54330000D03*
D13*
X54980000Y-54330000D03*
X57520000Y-51790000D03*
X54980000Y-51790000D03*
X57520000Y-49250000D03*
X54980000Y-49250000D03*
X57520000Y-46710000D03*
X54980000Y-46710000D03*
X79480000Y-44170000D03*
X82020000Y-44170000D03*
D12*
X82020000Y-54330000D03*
D13*
X79480000Y-54330000D03*
X82020000Y-51790000D03*
X79480000Y-51790000D03*
X82020000Y-49250000D03*
X79480000Y-49250000D03*
X82020000Y-46710000D03*
X79480000Y-46710000D03*
D11*
X61999240Y-41550000D03*
X61999240Y-43450000D03*
X63998220Y-42500000D03*
D14*
X73750000Y-54330000D03*
X73750000Y-49250000D03*
X73750000Y-44170000D03*
D12*
X51270000Y-51790000D03*
D13*
X48730000Y-51790000D03*
X51270000Y-49250000D03*
X48730000Y-49250000D03*
X51270000Y-46710000D03*
X48730000Y-46710000D03*
D15*
X68750000Y-52250000D03*
X68750000Y-50750000D03*
X68750000Y-56750000D03*
X68750000Y-55250000D03*
X60500000Y-55250000D03*
X60500000Y-56750000D03*
X60500000Y-50750000D03*
X60500000Y-52250000D03*
X60500000Y-46250000D03*
X60500000Y-47750000D03*
X68750000Y-47750000D03*
X68750000Y-46250000D03*
X60500000Y-41750000D03*
X60500000Y-43250000D03*
X68750000Y-43250000D03*
X68750000Y-41750000D03*
D16*
X59250000Y-42399998D03*
X60000000Y-54400000D03*
X60050000Y-49900000D03*
X60100000Y-45350000D03*
X69700000Y-44850000D03*
X76250000Y-43000000D03*
X69726090Y-54400000D03*
X78250000Y-56050000D03*
X69700000Y-49350000D03*
X74600000Y-47400000D03*
D17*
X59250000Y-42143600D02*
X59250000Y-42399998D01*
X59643600Y-41750000D02*
X59250000Y-42143600D01*
X60500000Y-41750000D02*
X59643600Y-41750000D01*
D18*
X61849240Y-41400000D02*
X61999240Y-41550000D01*
X61849240Y-45900000D02*
X61999240Y-46050000D01*
X61849240Y-54900000D02*
X61999240Y-55050000D01*
X61849240Y-50400000D02*
X61999240Y-50550000D01*
D17*
X61799240Y-41750000D02*
X61999240Y-41550000D01*
X60500000Y-41750000D02*
X61799240Y-41750000D01*
X61799240Y-46250000D02*
X61999240Y-46050000D01*
X60500000Y-46250000D02*
X61799240Y-46250000D01*
X61799240Y-50750000D02*
X61999240Y-50550000D01*
X60500000Y-50750000D02*
X61799240Y-50750000D01*
X61799240Y-55250000D02*
X61999240Y-55050000D01*
X60500000Y-55250000D02*
X61799240Y-55250000D01*
X60500000Y-45750000D02*
X60100000Y-45350000D01*
X60500000Y-46250000D02*
X60500000Y-45750000D01*
X60250000Y-49900000D02*
X60050000Y-49900000D01*
X60500000Y-50150000D02*
X60250000Y-49900000D01*
X60500000Y-50750000D02*
X60500000Y-50150000D01*
X60300000Y-54400000D02*
X60000000Y-54400000D01*
X60500000Y-54600000D02*
X60300000Y-54400000D01*
X60500000Y-55250000D02*
X60500000Y-54600000D01*
D18*
X61849240Y-43600000D02*
X61999240Y-43450000D01*
X50241300Y-51790000D02*
X51270000Y-51790000D01*
X50000000Y-51548700D02*
X50241300Y-51790000D01*
X50000000Y-43950000D02*
X50000000Y-51548700D01*
X51150000Y-42800000D02*
X50000000Y-43950000D01*
X57317433Y-42800000D02*
X51150000Y-42800000D01*
X57520000Y-43002567D02*
X57317433Y-42800000D01*
X57520000Y-44170000D02*
X57520000Y-43002567D01*
X57520000Y-43002567D02*
X58952567Y-43002567D01*
X61799240Y-43250000D02*
X61999240Y-43450000D01*
X60500000Y-43250000D02*
X61799240Y-43250000D01*
X59200000Y-43250000D02*
X60500000Y-43250000D01*
X58952567Y-43002567D02*
X59200000Y-43250000D01*
X56360000Y-45550000D02*
X57520000Y-46710000D01*
X54150000Y-45550000D02*
X56360000Y-45550000D01*
X53100000Y-46600000D02*
X54150000Y-45550000D01*
X53100000Y-47420000D02*
X53100000Y-46600000D01*
X51270000Y-49250000D02*
X53100000Y-47420000D01*
X61849240Y-48100000D02*
X61999240Y-47950000D01*
X61799240Y-47750000D02*
X61999240Y-47950000D01*
X60500000Y-47750000D02*
X61799240Y-47750000D01*
X58560000Y-47750000D02*
X57520000Y-46710000D01*
X60500000Y-47750000D02*
X58560000Y-47750000D01*
X61849240Y-57100000D02*
X61999240Y-56950000D01*
X50050000Y-55950000D02*
X57000000Y-55950000D01*
X57520000Y-55430000D02*
X57520000Y-54330000D01*
X47350000Y-53250000D02*
X50050000Y-55950000D01*
X47350000Y-50630000D02*
X47350000Y-53250000D01*
X57000000Y-55950000D02*
X57520000Y-55430000D01*
X48730000Y-49250000D02*
X47350000Y-50630000D01*
X61799240Y-56750000D02*
X61999240Y-56950000D01*
X60500000Y-56750000D02*
X61799240Y-56750000D01*
X57800000Y-56750000D02*
X57742002Y-56692002D01*
X60500000Y-56750000D02*
X57800000Y-56750000D01*
X57000000Y-55950000D02*
X57742002Y-56692002D01*
X61849240Y-52600000D02*
X61999240Y-52450000D01*
X59000000Y-51100000D02*
X59000000Y-51800000D01*
X57520000Y-49620000D02*
X59000000Y-51100000D01*
X57520000Y-49250000D02*
X57520000Y-49620000D01*
X59450000Y-52250000D02*
X60500000Y-52250000D01*
X59000000Y-51800000D02*
X59450000Y-52250000D01*
X61799240Y-52250000D02*
X61999240Y-52450000D01*
X60500000Y-52250000D02*
X61799240Y-52250000D01*
X88470000Y-44170000D02*
X89250000Y-44950000D01*
X88798700Y-51790000D02*
X87770000Y-51790000D01*
X89250000Y-51338700D02*
X88798700Y-51790000D01*
X89250000Y-44950000D02*
X89250000Y-51338700D01*
X84362254Y-44170000D02*
X88470000Y-44170000D01*
X84362254Y-43212254D02*
X84362254Y-44170000D01*
X82020000Y-44170000D02*
X84362254Y-44170000D01*
X67448980Y-41750000D02*
X67248980Y-41550000D01*
X68750000Y-41750000D02*
X67448980Y-41750000D01*
X82900000Y-41750000D02*
X83119037Y-41969037D01*
X68750000Y-41750000D02*
X82900000Y-41750000D01*
X83119037Y-41969037D02*
X84362254Y-43212254D01*
D17*
X70450000Y-52583140D02*
X70450000Y-56600000D01*
X70450000Y-49305668D02*
X70505668Y-49250000D01*
X70505668Y-49250000D02*
X73750000Y-49250000D01*
X70300000Y-56750000D02*
X70450000Y-56600000D01*
X68750000Y-56750000D02*
X70300000Y-56750000D01*
X68550000Y-56950000D02*
X68750000Y-56750000D01*
X67248980Y-56950000D02*
X68550000Y-56950000D01*
X67448980Y-52250000D02*
X67248980Y-52450000D01*
X68750000Y-52250000D02*
X67448980Y-52250000D01*
X67448980Y-47750000D02*
X67248980Y-47950000D01*
X68750000Y-47750000D02*
X67448980Y-47750000D01*
X67448980Y-43250000D02*
X67248980Y-43450000D01*
X68750000Y-43250000D02*
X67448980Y-43250000D01*
X70450000Y-48001852D02*
X70450000Y-49305668D01*
X69650000Y-43250000D02*
X70450000Y-44050000D01*
X68750000Y-43250000D02*
X69650000Y-43250000D01*
X70393580Y-47750000D02*
X68750000Y-47750000D01*
X70450000Y-44050000D02*
X70450000Y-47693580D01*
X70450000Y-47693580D02*
X70393580Y-47750000D01*
X70450000Y-47693580D02*
X70450000Y-48001852D01*
X70426618Y-52250000D02*
X68750000Y-52250000D01*
X70450000Y-52226618D02*
X70426618Y-52250000D01*
X70450000Y-49305668D02*
X70450000Y-52226618D01*
X70450000Y-52226618D02*
X70450000Y-52583140D01*
D18*
X81194501Y-45884501D02*
X82020000Y-46710000D01*
X77450000Y-45450000D02*
X80760000Y-45450000D01*
X76250000Y-44250000D02*
X77450000Y-45450000D01*
X80760000Y-45450000D02*
X81194501Y-45884501D01*
X76250000Y-43000000D02*
X76250000Y-44250000D01*
X67448980Y-46250000D02*
X67248980Y-46050000D01*
X68750000Y-46250000D02*
X67448980Y-46250000D01*
X68750000Y-45200000D02*
X68750000Y-46250000D01*
X69100000Y-44850000D02*
X68750000Y-45200000D01*
X69700000Y-44850000D02*
X69100000Y-44850000D01*
X84062567Y-49250000D02*
X85230000Y-49250000D01*
X83650000Y-49662567D02*
X84062567Y-49250000D01*
X83650000Y-53728700D02*
X83650000Y-49662567D01*
X83048700Y-54330000D02*
X83650000Y-53728700D01*
X82020000Y-54330000D02*
X83048700Y-54330000D01*
X67448980Y-55250000D02*
X67248980Y-55050000D01*
X68750000Y-55250000D02*
X67448980Y-55250000D01*
X69726090Y-54400000D02*
X68950000Y-54400000D01*
X68750000Y-54600000D02*
X68750000Y-55250000D01*
X68950000Y-54400000D02*
X68750000Y-54600000D01*
X82020000Y-54330000D02*
X82020000Y-55358700D01*
X82020000Y-55358700D02*
X81328700Y-56050000D01*
X81328700Y-56050000D02*
X78699012Y-56050000D01*
X78699012Y-56050000D02*
X78250000Y-56050000D01*
X86944501Y-47535499D02*
X87770000Y-46710000D01*
X86480000Y-48000000D02*
X86944501Y-47535499D01*
X83270000Y-48000000D02*
X86480000Y-48000000D01*
X82020000Y-49250000D02*
X83270000Y-48000000D01*
X81194501Y-48424501D02*
X82020000Y-49250000D01*
X75319699Y-48119699D02*
X80889699Y-48119699D01*
X80889699Y-48119699D02*
X81194501Y-48424501D01*
X74600000Y-47400000D02*
X75319699Y-48119699D01*
X67448980Y-50750000D02*
X67248980Y-50550000D01*
X68750000Y-50750000D02*
X67448980Y-50750000D01*
X69700000Y-49350000D02*
X69200000Y-49350000D01*
X68750000Y-49800000D02*
X68750000Y-50750000D01*
X69200000Y-49350000D02*
X68750000Y-49800000D01*
X63998220Y-42500000D02*
X65250000Y-42500000D01*
X63998220Y-47000000D02*
X65250000Y-47000000D01*
X63998220Y-51500000D02*
X65250000Y-51500000D01*
X63998220Y-56000000D02*
X65250000Y-56000000D01*
M02*
